<?xml version="1.0" standalone="no"?>
<!DOCTYPE svg PUBLIC "-//W3C//DTD SVG 20010904//EN"
 "http://www.w3.org/TR/2001/REC-SVG-20010904/DTD/svg10.dtd">
<svg version="1.0" xmlns="http://www.w3.org/2000/svg"
 width="800.000000pt" height="800.000000pt" viewBox="0 0 800.000000 800.000000"
 preserveAspectRatio="xMidYMid meet">

<g transform="translate(0.000000,800.000000) scale(0.100000,-0.100000)"
fill="#000000" stroke="none">
<path d="M3845 7859 c-22 -4 -76 -8 -120 -8 -50 -1 -91 -7 -109 -16 -22 -12
-72 -15 -235 -15 l-206 -1 -55 -29 c-126 -66 -224 -110 -247 -110 -25 0 -188
-75 -198 -91 -10 -15 -82 -49 -104 -49 -11 0 -24 -6 -28 -13 -10 -15 -56 -54
-151 -127 -40 -30 -72 -60 -72 -65 0 -10 -46 -71 -114 -150 -19 -22 -51 -60
-71 -85 -21 -25 -48 -51 -60 -57 -13 -7 -27 -23 -31 -35 -4 -12 -17 -30 -29
-40 -27 -21 -125 -210 -125 -241 0 -12 -6 -31 -13 -42 -17 -26 -37 -85 -42
-127 -3 -18 -10 -58 -16 -88 -28 -132 -19 -430 12 -430 5 0 18 -18 29 -40 15
-30 19 -50 14 -80 -4 -22 -2 -59 5 -83 6 -23 13 -132 16 -242 5 -239 22 -375
46 -375 5 0 12 0 17 0 4 0 7 3 7 8 0 4 6 14 13 22 6 8 21 26 31 40 18 23 26
25 123 28 96 3 105 2 106 -15 2 -49 -40 -93 -89 -93 -9 0 -33 -7 -52 -15 -20
-8 -47 -15 -61 -15 -17 0 -28 -9 -40 -35 -19 -39 -18 -39 -65 -25 -28 8 -39 6
-63 -11 -20 -14 -28 -28 -26 -43 3 -19 11 -22 80 -26 74 -5 79 -7 114 -43 20
-20 42 -37 50 -37 20 0 28 -48 17 -102 -5 -27 -6 -51 -1 -54 4 -3 8 -14 8 -24
0 -13 14 -27 40 -40 46 -23 56 -25 58 -7 4 34 25 124 33 139 5 10 9 31 9 48 0
31 22 93 41 116 15 18 57 3 74 -26 8 -14 22 -40 30 -59 9 -18 25 -36 36 -38
12 -4 22 -17 26 -34 3 -16 9 -29 14 -29 5 0 9 -9 9 -20 0 -14 7 -20 22 -20 17
0 19 -3 10 -12 -18 -18 -15 -46 7 -57 10 -6 21 -21 25 -34 4 -17 15 -26 34
-30 17 -3 33 -16 40 -31 6 -13 22 -30 35 -38 142 -77 122 -71 257 -71 116 1
218 13 265 32 37 16 100 38 140 51 66 20 130 67 181 133 27 34 53 67 59 72 24
21 124 202 130 235 4 19 13 44 20 55 20 30 36 99 41 174 6 86 22 101 109 101
89 0 105 -15 111 -104 4 -50 15 -88 40 -140 19 -40 34 -79 34 -87 0 -8 15 -37
33 -64 17 -28 38 -63 46 -78 8 -15 20 -27 26 -27 7 0 18 -13 25 -30 7 -16 27
-41 46 -55 19 -14 34 -33 34 -41 0 -7 7 -14 15 -14 9 0 18 -7 21 -15 4 -8 12
-15 20 -15 8 0 14 -4 14 -8 0 -10 59 -32 86 -32 11 0 28 -6 39 -13 45 -30 147
-55 270 -67 188 -18 283 -6 357 46 26 19 52 34 57 34 14 0 52 51 45 61 -13 22
-75 5 -169 -48 -41 -23 -150 -47 -214 -47 -89 0 -331 54 -331 74 0 4 -12 13
-27 21 -74 36 -253 221 -253 259 0 6 -4 18 -9 28 -17 30 -51 127 -65 180 -18
66 -7 170 18 184 9 5 21 20 26 34 5 13 21 26 37 30 15 4 39 18 53 31 21 20 32
23 65 18 22 -3 54 -8 72 -10 18 -2 36 -6 40 -8 5 -3 47 1 93 10 117 21 251 12
336 -22 83 -33 146 -26 185 21 11 13 11 18 1 21 -25 9 1 23 42 23 29 0 51 -7
66 -20 13 -11 26 -20 29 -20 17 0 32 -50 41 -135 5 -53 17 -112 25 -132 19
-45 19 -225 0 -263 -35 -70 -51 -157 -33 -176 15 -14 67 32 97 87 18 33 36 59
41 59 14 0 50 -76 50 -105 0 -14 4 -25 8 -25 5 0 6 -14 4 -31 -3 -22 -1 -30 7
-25 11 7 14 -1 14 -38 -1 -11 5 -26 12 -33 18 -18 24 3 26 92 0 39 7 88 14
110 7 22 11 62 9 88 -4 46 -3 49 24 59 17 7 38 29 55 59 29 53 34 84 14 92 -7
2 -40 28 -75 57 -56 46 -62 56 -62 89 0 47 14 61 61 61 20 0 41 6 47 13 6 7
11 71 11 152 1 77 3 153 5 169 3 17 0 39 -6 50 -15 28 -41 224 -41 306 0 36 1
139 1 230 1 90 -3 182 -9 203 -6 21 -10 82 -10 135 1 105 -3 156 -14 187 -28
80 -41 103 -82 151 -26 30 -52 54 -59 54 -7 0 -17 6 -21 13 -4 7 -33 28 -64
45 -70 40 -112 92 -116 146 -2 22 -7 42 -11 45 -5 4 -13 13 -18 22 -5 9 -35
45 -66 80 -32 35 -68 79 -80 98 -13 19 -30 38 -38 42 -41 21 -194 79 -208 79
-10 0 -35 9 -57 19 -69 34 -112 51 -128 51 -8 0 -47 16 -86 35 -39 19 -77 35
-84 35 -7 0 -49 15 -93 34 -61 27 -95 35 -149 37 -38 1 -74 5 -80 9 -11 9
-136 41 -151 39 -5 -1 -27 -5 -49 -10z m747 -1280 c91 -33 116 -46 151 -85 16
-17 42 -29 72 -35 30 -6 56 -18 71 -34 13 -14 32 -25 42 -25 11 0 25 -7 32
-15 7 -8 9 -15 6 -15 -4 0 0 -7 8 -16 9 -8 16 -25 16 -36 0 -12 8 -30 17 -40
14 -16 15 -23 5 -38 -17 -28 -15 -44 8 -65 14 -13 20 -31 20 -62 0 -23 4 -43
8 -43 4 0 14 -21 21 -47 8 -27 19 -61 26 -78 7 -16 16 -50 18 -75 3 -24 11
-46 16 -48 6 -2 11 -13 11 -25 0 -12 9 -35 20 -52 11 -16 20 -39 20 -51 0 -24
-41 -50 -64 -41 -9 4 -67 9 -130 13 l-113 6 -29 -30 c-25 -26 -40 -32 -109
-40 -88 -11 -122 -9 -239 14 -43 9 -97 13 -120 10 -22 -3 -72 -9 -111 -15 -38
-5 -104 -14 -145 -20 -41 -6 -86 -11 -100 -10 -14 1 -68 -2 -121 -6 -59 -5
-147 -3 -225 4 -103 10 -144 9 -203 -1 -41 -7 -76 -19 -78 -25 -3 -7 18 -23
49 -36 79 -36 81 -37 107 -51 63 -37 81 -153 41 -270 -10 -31 -17 -63 -14 -70
7 -18 -13 -133 -28 -166 -7 -14 -29 -46 -50 -72 -21 -26 -38 -51 -38 -55 0
-16 -140 -153 -155 -153 -4 0 -25 -13 -48 -30 -30 -21 -61 -32 -107 -39 -92
-12 -332 -4 -383 14 -23 8 -47 15 -54 15 -21 0 -93 53 -99 74 -4 12 -22 39
-40 61 -19 22 -40 47 -47 56 -17 20 -39 103 -28 107 13 4 1 103 -17 142 -22
49 -24 55 -31 150 -4 59 -3 92 6 109 6 14 10 28 7 32 -2 4 16 25 41 45 54 46
59 74 15 74 -32 0 -103 -31 -128 -56 -7 -8 -27 -14 -43 -14 -29 0 -29 0 -29
63 0 63 32 179 57 205 7 7 13 21 13 30 0 20 21 80 35 102 5 8 8 23 6 33 -1 10
5 27 14 36 13 16 15 45 13 198 -1 145 1 184 13 196 25 29 35 42 38 52 2 6 31
21 65 33 33 13 91 39 128 58 37 19 73 34 79 34 7 0 36 16 65 35 43 29 66 37
121 42 69 6 113 25 113 48 0 30 70 32 184 5 47 -11 127 -22 178 -24 51 -3 93
-6 93 -7 0 -8 280 -34 315 -28 25 4 91 9 146 13 93 6 153 18 179 36 10 7 97
25 160 34 67 9 176 -5 257 -35z"/>
<path d="M3045 5638 c-163 -16 -190 -36 -110 -83 40 -24 45 -31 42 -58 l-2
-32 91 1 c112 2 162 16 170 50 4 15 21 32 45 45 22 10 39 25 39 33 0 17 -72
45 -130 50 -25 2 -90 -1 -145 -6z"/>
<path d="M3168 5373 c7 -3 16 -2 19 1 4 3 -2 6 -13 5 -11 0 -14 -3 -6 -6z"/>
<path d="M3120 5350 c-61 -8 -160 -41 -160 -52 0 -5 -15 -9 -32 -9 -24 -1 -27
-3 -10 -6 12 -2 22 -8 22 -13 0 -4 -16 -4 -37 0 -46 11 -80 -11 -85 -57 -4
-32 -3 -33 34 -33 20 0 41 6 45 13 4 6 20 18 34 26 41 20 84 6 116 -39 42 -58
106 -64 179 -17 26 17 33 30 37 67 3 25 9 59 12 76 6 25 3 33 -12 39 -28 12
-83 14 -143 5z"/>
<path d="M4524 5352 c-46 -2 -66 -8 -79 -22 -11 -12 -13 -20 -6 -20 6 0 16
-10 21 -22 6 -13 14 -30 19 -38 5 -8 12 -23 15 -32 3 -11 21 -19 50 -23 59 -9
92 0 121 31 37 40 90 36 129 -9 31 -36 47 -41 119 -38 21 1 27 6 27 24 0 13
-9 32 -20 42 -11 10 -20 26 -20 35 0 18 -62 43 -84 34 -7 -3 -34 2 -59 11 -59
20 -154 31 -233 27z"/>
<path d="M5413 4638 c-2 -5 -1 -7 4 -6 4 2 9 0 11 -4 1 -5 0 -7 -3 -5 -14 7
-51 -81 -46 -110 1 -7 -3 -22 -10 -34 -15 -29 -13 -137 3 -157 10 -12 10 -16
0 -19 -6 -3 -10 -8 -7 -12 2 -4 5 -24 7 -44 1 -21 7 -37 14 -37 23 0 44 12 44
26 0 8 4 14 10 14 5 0 7 7 4 15 -7 17 14 145 26 160 11 15 25 95 21 130 -1 16
-9 34 -17 40 -8 6 -16 20 -17 32 -1 21 -32 29 -44 11z"/>
<path d="M4077 4517 c-17 -11 -38 -28 -45 -38 -7 -11 -18 -19 -24 -19 -7 0
-22 -10 -34 -21 -13 -12 -37 -24 -55 -28 -39 -8 -61 -37 -39 -51 22 -14 86
-12 125 4 21 9 34 11 32 4 -1 -6 4 -13 11 -15 6 -3 12 2 12 11 0 9 8 16 20 16
11 0 20 -5 20 -12 0 -6 7 -4 18 5 10 10 26 17 34 17 9 0 37 9 63 20 46 20 47
21 41 57 -3 21 -5 39 -6 39 -1 6 -43 17 -88 23 -43 6 -58 4 -85 -12z"/>
<path d="M2166 4477 c-8 -23 -14 -53 -11 -67 17 -85 23 -144 18 -173 -5 -31 6
-67 36 -127 12 -23 76 -36 96 -20 14 11 15 25 10 74 -4 34 -10 66 -13 71 -4 6
-8 21 -10 35 -2 14 -10 45 -18 69 -8 24 -18 65 -21 90 -13 95 -59 121 -87 48z"/>
<path d="M3583 4493 c-35 -18 -41 -34 -20 -51 17 -14 185 -18 199 -4 19 19 -9
49 -56 61 -59 14 -84 13 -123 -6z"/>
<path d="M4096 4295 c4 -9 0 -15 -10 -15 -9 0 -16 -4 -16 -10 0 -5 7 -10 15
-10 8 0 15 -9 15 -20 0 -18 54 -86 62 -78 2 2 23 -13 46 -33 28 -24 42 -44 42
-60 0 -24 -30 -59 -50 -59 -6 0 -10 -3 -10 -7 0 -11 -58 -43 -76 -43 -8 0 -14
-8 -14 -18 0 -14 16 -22 73 -35 40 -9 86 -17 100 -17 15 0 36 -5 47 -12 15
-10 37 -8 109 6 104 21 164 17 192 -13 26 -27 50 -27 78 3 30 32 31 94 1 138
-35 51 -92 97 -121 98 -14 0 -29 4 -35 9 -5 6 -44 14 -87 20 -46 5 -86 16 -96
25 -10 9 -21 16 -25 16 -4 0 -26 16 -49 35 -23 20 -52 38 -64 41 -13 4 -23 10
-23 15 0 5 -8 9 -18 9 -10 0 -27 7 -38 15 -26 19 -55 20 -48 0z"/>
<path d="M3615 4257 c-16 -7 -42 -24 -59 -39 -16 -15 -53 -37 -83 -49 -29 -12
-53 -24 -53 -28 0 -4 -24 -13 -52 -20 -29 -7 -91 -32 -137 -55 -79 -39 -85
-44 -113 -100 -67 -133 -29 -197 85 -141 30 15 86 30 132 36 44 6 94 15 111
20 17 5 44 9 60 9 18 0 43 11 64 28 l34 29 -45 15 c-31 10 -55 12 -84 6 -25
-5 -48 -5 -62 1 -19 9 -20 13 -10 36 7 14 22 28 34 31 12 3 24 12 27 20 3 8
14 14 24 14 11 0 30 8 43 18 13 9 47 28 76 42 57 28 73 48 76 100 2 40 -16 47
-68 27z"/>
<path d="M2402 3678 c-8 -10 -7 -20 3 -38 8 -14 17 -32 21 -40 4 -8 13 -19 21
-23 7 -4 13 -25 13 -47 0 -26 7 -47 19 -59 11 -11 24 -29 30 -40 6 -11 28 -30
50 -42 42 -23 45 -45 11 -84 -10 -11 -21 -30 -25 -42 -3 -13 -13 -23 -21 -23
-16 0 -92 -75 -106 -105 -37 -80 -135 -180 -267 -272 -58 -40 -203 -113 -225
-113 -9 0 -24 -4 -34 -10 -9 -5 -53 -25 -97 -43 -44 -19 -105 -46 -135 -60
-135 -61 -220 -97 -227 -97 -4 0 -39 -15 -78 -34 -115 -56 -238 -113 -265
-121 -14 -4 -51 -21 -82 -36 -32 -16 -62 -29 -68 -29 -7 0 -44 -16 -84 -35
-40 -19 -78 -35 -83 -35 -6 0 -31 -11 -55 -25 -25 -14 -69 -34 -99 -44 -52
-18 -153 -62 -234 -102 -22 -10 -46 -19 -52 -19 -7 0 -13 -4 -13 -10 0 -5 -9
-10 -19 -10 -11 0 -53 -18 -95 -39 -41 -22 -95 -43 -119 -46 -69 -11 -74 -24
-63 -195 3 -52 8 -239 11 -415 3 -176 7 -365 10 -420 3 -55 10 -271 15 -479 5
-208 12 -394 16 -412 l6 -34 1460 0 c1385 0 1459 1 1454 18 -2 9 -8 46 -11 82
-4 36 -11 70 -15 75 -4 6 -12 38 -19 71 -6 34 -22 88 -34 120 -13 33 -24 77
-25 99 -2 22 -11 69 -22 105 -23 76 -38 153 -50 265 -5 44 -13 114 -18 155 -9
76 -7 99 11 112 6 3 11 14 12 25 1 10 5 25 9 33 4 9 -4 36 -17 61 -13 24 -27
61 -31 81 -4 21 -12 41 -19 45 -39 24 -81 219 -73 337 4 65 -9 264 -24 356 -4
30 -18 87 -30 125 -12 39 -26 95 -31 125 -6 30 -14 59 -18 65 -8 9 -41 172
-55 274 -4 24 -9 48 -13 54 -12 19 -17 84 -17 215 0 99 4 136 13 142 8 4 11
13 7 18 -8 13 12 101 27 120 23 29 37 4 43 -76 2 -29 10 -67 19 -85 26 -54 78
-107 111 -113 29 -6 33 -3 44 30 6 20 10 48 8 62 -2 17 3 31 14 37 13 9 26 3
63 -29 26 -21 59 -45 73 -53 15 -8 33 -22 39 -32 8 -10 34 -20 65 -25 63 -9
54 -7 103 -29 22 -9 42 -21 45 -25 3 -4 30 -18 60 -31 30 -12 66 -30 80 -40
14 -9 51 -29 83 -43 31 -15 57 -30 57 -35 0 -11 41 -28 87 -37 59 -11 115 -38
154 -75 37 -36 58 -53 99 -82 14 -10 24 -21 22 -25 -2 -4 21 -12 50 -18 29 -6
65 -16 79 -22 28 -11 109 -5 109 9 0 4 8 7 18 6 19 -1 102 51 102 64 0 5 18
18 40 29 26 13 40 27 40 40 0 11 6 20 14 20 8 0 27 14 43 30 15 17 36 30 45
30 10 0 18 5 18 10 0 6 11 10 24 10 13 0 39 12 59 28 50 38 118 78 145 86 12
4 22 12 22 17 0 5 8 9 18 9 11 0 27 10 38 21 10 12 44 40 74 62 30 23 61 47
68 54 7 7 18 13 23 13 6 0 21 13 35 29 14 17 34 33 44 36 11 4 20 12 20 20 0
7 18 35 41 61 22 27 49 68 60 92 11 23 23 42 28 42 4 0 14 12 22 28 7 15 28
48 46 74 31 46 45 108 23 108 -15 0 -60 -23 -60 -30 0 -4 -16 -15 -35 -26 -19
-10 -35 -23 -35 -29 0 -6 -10 -17 -22 -25 -49 -31 -84 -51 -100 -56 -10 -4
-18 -10 -18 -15 0 -5 -18 -17 -40 -26 -22 -10 -40 -21 -40 -25 0 -5 -12 -8
-26 -8 -31 0 -236 -46 -261 -58 -95 -47 -91 -47 -265 -40 -27 1 -51 -2 -55 -5
-3 -4 -19 -7 -35 -7 -16 0 -38 -5 -50 -11 -11 -6 -62 -10 -113 -10 -70 1 -94
-3 -98 -13 -7 -17 -101 -41 -118 -30 -21 13 -143 13 -158 1 -23 -19 -223 -12
-328 11 -26 6 -73 13 -104 15 -31 2 -63 8 -70 13 -8 4 -20 9 -29 10 -80 13
-124 28 -186 63 -31 17 -41 26 -130 109 -69 65 -129 112 -143 112 -6 0 -11 5
-11 10 0 14 -57 98 -104 154 -22 25 -51 67 -65 93 -27 50 -50 63 -69 41z"/>
<path d="M5220 3108 c0 -40 5 -111 10 -158 14 -120 19 -337 9 -390 -4 -25 -10
-87 -14 -139 -3 -52 -10 -100 -14 -105 -12 -15 -31 -165 -31 -241 0 -34 -5
-87 -10 -116 -30 -152 -39 -222 -40 -304 -1 -128 -17 -258 -40 -340 -7 -22
-16 -75 -21 -118 -5 -42 -13 -86 -19 -97 -5 -10 -10 -40 -10 -65 0 -26 -6 -73
-14 -104 -8 -31 -19 -98 -25 -148 -6 -51 -16 -104 -21 -118 -5 -14 -12 -62
-16 -108 -7 -96 -38 -291 -59 -362 -8 -27 -17 -83 -20 -122 l-6 -73 185 0 186
0 0 35 c0 24 -5 35 -15 35 -8 0 -19 9 -25 20 -7 14 -7 20 0 20 14 0 13 47 -2
54 -7 4 -4 5 8 2 18 -3 20 1 16 23 -3 14 -9 29 -15 32 -9 6 -15 44 -16 102 -1
16 -5 26 -10 23 -5 -3 -9 28 -9 69 -1 41 3 75 7 75 15 0 23 51 10 66 -9 10 -7
22 9 51 11 21 25 37 31 35 6 -1 11 11 11 27 0 24 4 29 19 26 21 -4 37 20 21
30 -15 10 -12 45 4 45 8 0 18 9 21 21 5 14 13 19 26 16 10 -3 17 0 16 7 -1 6
6 10 16 10 9 -1 17 4 17 11 0 8 9 10 25 7 26 -5 30 -27 4 -27 -17 0 -18 -47
-1 -53 8 -2 16 5 19 17 4 16 9 19 19 11 9 -8 19 -8 32 -1 11 6 22 8 24 5 3 -2
11 2 18 11 15 19 5 34 -12 17 -19 -19 -60 -15 -56 6 4 23 108 32 108 8 0 -8
10 -17 23 -19 l22 -4 -22 -8 c-13 -4 -23 -14 -23 -21 0 -8 -5 -14 -11 -14 -5
0 -8 4 -4 9 3 5 1 12 -5 16 -6 4 -10 -5 -10 -19 0 -25 2 -26 50 -21 28 3 50 1
50 -4 0 -5 -4 -11 -9 -13 -5 -1 -7 -15 -4 -30 6 -29 29 -39 81 -32 22 2 39 -2
49 -12 17 -16 17 -16 -12 -32 -19 -10 -17 -12 18 -27 34 -14 55 -31 23 -19 -9
4 -20 -7 -32 -31 -9 -20 -28 -41 -41 -46 -30 -11 -29 -17 5 -31 l27 -11 -30
-8 c-22 -6 -32 -5 -38 6 -13 24 -37 18 -37 -10 0 -26 15 -34 23 -12 3 6 6 2 6
-10 1 -16 -6 -24 -24 -29 -30 -8 -44 1 -27 18 15 15 16 28 2 28 -5 0 -10 -7
-10 -15 0 -8 -9 -24 -20 -35 -11 -11 -20 -22 -20 -25 0 -3 0 -9 0 -15 0 -15
-21 -12 -40 5 -15 14 -18 14 -30 0 -11 -13 -9 -15 14 -15 14 0 26 -4 26 -10 0
-5 9 -10 20 -10 11 0 20 5 20 10 0 6 6 10 13 10 6 0 23 9 37 20 27 21 50 26
50 10 0 -5 -8 -10 -17 -10 -17 -1 -17 -1 0 -11 9 -5 17 -16 17 -24 0 -7 -8
-16 -17 -18 -16 -4 -16 -5 -1 -6 12 -1 17 -14 20 -58 4 -64 3 -72 -13 -56 -14
14 -40 5 -57 -19 -7 -10 -20 -18 -28 -18 -8 0 -14 -4 -14 -10 0 -5 -17 -10
-37 -11 -33 0 -35 -2 -17 -10 30 -15 105 6 98 26 -4 10 0 15 14 15 30 0 36
-17 12 -32 -11 -7 -20 -18 -20 -24 0 -7 -7 -14 -15 -18 -8 -3 -15 -11 -14 -18
0 -10 2 -10 6 0 2 6 11 12 19 12 8 0 14 5 14 11 0 17 45 5 48 -13 2 -12 -5
-19 -22 -24 -29 -7 -36 -26 -8 -23 9 1 31 1 47 0 l30 -2 -24 -13 c-14 -8 -30
-12 -37 -9 -7 2 -15 0 -18 -6 -4 -6 40 -10 126 -9 136 0 161 4 137 19 -10 6
-3 9 20 9 25 0 32 -3 27 -15 -7 -18 3 -19 54 -3 33 11 39 16 33 33 -5 17 -4
18 11 6 9 -7 16 -9 16 -3 0 5 12 17 26 27 22 14 28 15 35 4 7 -11 9 -10 9 4 0
9 6 17 13 17 6 0 23 3 37 6 21 5 22 4 8 -6 -26 -16 -22 -30 12 -41 39 -14 38
-24 -2 -40 l-33 -13 32 -3 c23 -3 38 2 53 17 12 12 25 18 28 14 4 -3 1 -9 -5
-11 -55 -20 70 -23 837 -23 l850 0 0 33 c3 598 11 1795 14 1945 3 150 1 212
-9 234 -7 17 -15 26 -18 21 -14 -22 -68 -23 -107 -3 -22 11 -47 20 -57 20 -20
0 -65 16 -133 47 -25 11 -61 24 -80 28 -19 4 -39 11 -45 15 -5 4 -50 20 -100
35 -49 16 -103 35 -120 44 -47 24 -98 41 -126 41 -27 0 -79 21 -79 32 0 3 -14
10 -32 13 -18 4 -39 11 -48 16 -22 12 -221 80 -250 86 -14 2 -34 8 -45 13 -11
4 -38 15 -60 25 -65 27 -78 32 -120 44 -22 7 -49 16 -60 21 -54 25 -128 50
-146 50 -10 0 -27 4 -37 9 -63 34 -103 49 -144 55 -26 4 -50 11 -53 15 -2 5
-35 18 -72 29 -38 11 -113 34 -168 51 -55 17 -113 33 -130 37 -45 9 -195 66
-201 75 -3 5 -14 9 -24 9 -10 0 -40 11 -66 25 -26 14 -66 30 -88 37 -23 6 -60
26 -83 45 -23 18 -46 33 -52 33 -7 0 -11 -27 -11 -72z m410 -2238 c0 -5 -2
-10 -4 -10 -3 0 -8 5 -11 10 -3 6 -1 10 4 10 6 0 11 -4 11 -10z m518 -602 c-2
-7 7 -13 19 -13 12 0 25 -4 29 -8 4 -4 -2 -7 -14 -7 -17 0 -22 -6 -22 -24 0
-13 5 -26 12 -28 6 -2 9 -12 5 -21 -4 -10 -12 -14 -22 -11 -10 4 -15 0 -15
-15 0 -25 -18 -27 -35 -4 -10 14 -10 22 3 41 14 22 14 23 -6 29 -33 8 -29 49
6 61 37 14 42 14 40 0z m-441 -60 c-3 -8 -6 -5 -6 6 -1 11 2 17 5 13 3 -3 4
-12 1 -19z m350 -10 c-3 -7 -5 -2 -5 12 0 14 2 19 5 13 2 -7 2 -19 0 -25z
m160 -14 c-3 -3 -12 -4 -19 -1 -8 3 -5 6 6 6 11 1 17 -2 13 -5z m-127 -64 c0
-5 -4 -10 -9 -10 -6 0 -13 5 -16 10 -3 6 1 10 9 10 9 0 16 -4 16 -10z m-81
-81 c-16 -10 -23 -4 -14 10 3 6 11 8 17 5 6 -4 5 -9 -3 -15z"/>
<path d="M3910 2092 c-32 -14 -90 -68 -90 -83 0 -8 -11 -26 -24 -38 -32 -30
-56 -81 -56 -119 0 -24 -6 -33 -30 -44 -16 -7 -30 -16 -30 -20 0 -3 -11 -20
-25 -36 -13 -16 -36 -53 -51 -83 -15 -30 -35 -65 -46 -78 -10 -13 -18 -31 -18
-40 0 -9 -18 -42 -40 -75 -22 -32 -40 -66 -40 -75 0 -9 -14 -36 -30 -61 -29
-44 -36 -73 -24 -104 4 -12 11 -13 32 -5 14 5 32 7 39 5 26 -11 61 -113 83
-243 l21 -130 -20 -61 c-12 -34 -21 -70 -21 -81 0 -11 -5 -23 -10 -26 -16 -10
-66 -115 -75 -155 -4 -19 -14 -48 -22 -63 -11 -22 -12 -32 -2 -43 6 -7 15 -12
19 -9 12 7 38 -5 44 -20 3 -9 -13 -23 -49 -39 l-53 -26 -22 -87 c-12 -49 -28
-113 -35 -143 -8 -30 -14 -67 -15 -82 l0 -28 571 0 571 0 -5 78 c-5 89 -24
208 -37 237 -5 11 -11 30 -15 42 -3 12 -23 30 -43 40 -43 21 -52 49 -23 69 26
19 27 54 1 96 -11 18 -20 40 -20 48 0 9 -13 31 -28 50 -16 19 -34 45 -41 58
-10 18 -20 22 -61 22 -54 0 -73 16 -44 36 52 36 64 57 64 115 0 31 -9 85 -20
120 -14 43 -19 76 -15 104 6 35 3 43 -19 62 -32 28 -32 36 -5 80 14 23 24 61
29 110 6 62 12 79 36 104 30 31 86 40 101 16 8 -12 57 -47 67 -47 5 0 0 39 -9
65 -3 11 -23 55 -43 98 -35 74 -38 77 -71 77 -33 0 -34 1 -28 36 3 20 2 43 -2
52 -5 10 -22 47 -39 83 -17 37 -45 83 -62 103 -28 31 -38 36 -75 36 -54 0 -62
10 -30 40 39 37 26 49 -72 64 -16 3 -35 2 -43 -2z m138 -478 c14 -15 14 -19 1
-43 -13 -23 -22 -26 -75 -29 -45 -2 -64 1 -73 12 -38 45 104 103 147 60z m-44
-507 c10 -7 17 -22 15 -32 -5 -22 -60 -55 -86 -50 -10 2 -22 4 -28 4 -5 1 -16
5 -23 9 -17 11 3 69 26 75 35 9 79 7 96 -6z m-22 -632 c15 -27 25 -34 39 -30
14 5 22 0 29 -17 5 -13 17 -33 26 -45 10 -14 12 -23 5 -23 -17 0 -13 -37 4
-44 9 -3 15 -18 15 -39 0 -31 4 -35 31 -41 17 -3 43 -6 57 -6 14 0 34 -7 44
-17 39 -35 11 -86 -62 -112 -53 -20 -72 -27 -111 -44 l-36 -15 -17 92 c-20
108 -18 137 14 171 13 14 18 25 12 25 -7 0 -12 7 -12 16 0 11 5 14 18 9 12 -4
10 0 -6 15 -13 12 -21 25 -17 28 3 4 10 0 15 -8 6 -9 10 -10 10 -3 0 20 -30
43 -47 36 -12 -5 -14 -3 -8 7 6 10 4 11 -11 5 -41 -18 -89 -17 -112 2 -24 19
-21 29 18 55 43 29 78 23 102 -17z m-312 -354 c3 -1 -7 -8 -22 -16 -15 -8 -34
-12 -43 -9 -34 13 28 37 65 25z"/>
<path d="M2840 1105 c0 -3 11 -10 25 -15 22 -8 30 -26 26 -52 0 -5 4 -8 9 -8
15 0 12 28 -6 55 -14 21 -54 36 -54 20z"/>
<path d="M2913 1004 c-3 -9 -1 -19 5 -23 6 -3 13 -17 17 -31 10 -39 30 -61 49
-54 13 5 16 13 11 33 -4 14 -11 28 -16 29 -5 2 -16 17 -24 33 -17 32 -32 37
-42 13z"/>
<path d="M5670 650 c0 -5 5 -10 10 -10 6 0 10 5 10 10 0 6 -4 10 -10 10 -5 0
-10 -4 -10 -10z"/>
<path d="M5480 419 c0 -5 5 -7 10 -4 6 3 10 8 10 11 0 2 -4 4 -10 4 -5 0 -10
-5 -10 -11z"/>
<path d="M5550 295 c0 -7 16 -12 35 -13 42 -2 38 14 -5 20 -19 3 -30 0 -30 -7z"/>
<path d="M5625 230 c3 -5 8 -10 11 -10 2 0 4 5 4 10 0 6 -5 10 -11 10 -5 0 -7
-4 -4 -10z"/>
<path d="M5460 130 c0 -5 4 -10 9 -10 6 0 13 5 16 10 3 6 -1 10 -9 10 -9 0
-16 -4 -16 -10z"/>
<path d="M5495 80 c-11 -5 -17 -9 -13 -9 3 -1 13 -3 21 -6 8 -4 14 0 14 10 0
8 -1 15 -1 14 -1 0 -10 -4 -21 -9z"/>
<path d="M5406 51 c-3 -5 3 -11 15 -14 16 -4 18 -3 8 9 -13 16 -16 17 -23 5z"/>
<path d="M6088 43 c7 -3 16 -2 19 1 4 3 -2 6 -13 5 -11 0 -14 -3 -6 -6z"/>
</g>
</svg>
